<?xml version="1.0" encoding="utf-8"?>
<!-- Generator: Adobe Illustrator 18.0.0, SVG Export Plug-In . SVG Version: 6.00 Build 0)  -->
<!DOCTYPE svg PUBLIC "-//W3C//DTD SVG 1.1//EN" "http://www.w3.org/Graphics/SVG/1.1/DTD/svg11.dtd">
<svg version="1.1" id="Layer_1" xmlns="http://www.w3.org/2000/svg" xmlns:xlink="http://www.w3.org/1999/xlink" x="0px" y="0px"
	 viewBox="0 0 372.9 308" enable-background="new 0 0 372.9 308" xml:space="preserve">
<g>
	<g>
		<path fill="#000000" d="M27.7,17.6c1.7,0.6,3.2,1.2,4.8,1.7c4.7,1,9.4,1.9,14.2,2.9c6.2,1.2,12.4,2.6,18.6,3.8
			c8.5,1.7,17.1,3.2,25.5,5c7.3,1.5,14.6,3.2,21.9,4.8c8.1,1.7,16.1,3.4,24.3,5.1c17.5,3.7,35.1,7.4,52.6,11.1
			c14.9,3.2,29.8,6.5,44.8,9.9c4.1,0.9,8.1,1.7,12.3,2.6c3.8,0.8,7.6,1.7,11.4,2.6c4.7,1.2,9.4,2.3,14,3.6c3.7,1.1,7.5,2.2,11.4,2.5
			c1.1,0.1,2.2,0,3.1,0c2.2,3.6,4.2,7,6.3,10.3c5.4,8.8,10.8,17.5,16.1,26.4c6,9.9,11.7,19.9,17.5,29.7c1,1.7,2.1,3.2,3.1,4.8
			c0.4,0.6,0.7,1.2,1.2,1.9c-1.7,0.8-3.2,0.9-4.8,0.6c-6.8-1.4-13.7-1.7-20.5-1.9c-2.5-0.1-4.9-0.3-7.3-0.5
			c-1.2-0.1-2.5-0.2-3.7-0.2c-5-0.3-10-0.7-15.1-1c-3.1-0.2-6.2-0.4-9.3-0.7c-3.1-0.2-6.2-0.4-9.3-0.6c-4.2-0.3-8.4-0.6-12.7-0.9
			c-0.7-0.1-1.3-0.1-2-0.1c-4.9,0.2-9.8-0.5-14.7-0.9c-0.5,0-1.1-0.2-1.6-0.2c-5.2,0.2-10.4-0.5-15.6-0.8c-7-0.4-13.9-1.4-20.9-1.2
			c-3.3,0.1-6.5-0.5-9.9-0.7c-1.5-0.1-3.1-0.1-4.6-0.2c-3.6-0.2-7.1-0.4-10.7-0.6c-3.7-0.2-7.5-0.3-11.3-0.6c-5-0.3-9.9-0.7-14.8-1
			c-3.4-0.2-6.9-0.4-10.3-0.6c-5.1-0.3-10.3-0.7-15.4-1c-3.4-0.2-6.7-0.2-10.1-0.5c-2.1-0.1-4.1-0.4-6.1-0.5
			c-3.6-0.2-7.3-0.1-10.9-0.2c-2.7-0.2-5.5-0.5-8.3-0.7c-2.3-0.2-3.9-1.7-4.8-3.6c-2.6-5.4-5-10.8-7.5-16.2
			c-4.2-9.3-8.4-18.5-12.5-27.8c-1.5-3.4-2.8-6.9-4.4-10.2c-3.1-6.6-6.3-13.2-9.4-20c-1.1-2.2-2-4.6-3.1-6.9
			c-0.6-1.2-1.3-2.5-1.9-3.7c-1.8-4.1-3.6-8.3-5.5-12.3c-1.3-2.8-2.6-5.6-4.1-8.4C27.2,20.5,27.2,19.7,27.7,17.6z M279.4,76.8
			c-1.5-0.4-2.7-0.8-4.1-1.2c-6.4-1.6-12.7-3.1-19-4.6c-3.3-0.8-6.8-1.3-9.8-3.1c-1.8-1-3.6-1.6-5.6-1.5c-4.6,0.2-8.9-0.9-13.2-2
			c-3.8-1-7.6-2.2-11.7-2.2c-1.6,0-3.1-0.2-4.7-0.6c-3.9-0.9-7.8-2.1-11.7-3c-4.1-1.1-8.2-2.3-12.3-3c-6.1-0.9-12.1-2.1-18-3.5
			c-6.3-1.5-12.6-3.1-19-4.3c-6.9-1.2-13.7-2.6-20.5-4.2c-1.6-0.4-3.1-1-4.8-1.2c-5.9-0.5-11.6-1.7-17.4-3.1
			c-4.2-1-8.4-1.8-12.6-2.6c-5.5-1.1-11-2-16.6-3c-3.7-0.7-7.5-1.6-11.3-2.2c-3.6-0.7-7.2-1.1-10.8-1.8c-6.9-1.4-13.7-2.9-20.5-4.4
			c-0.6-0.2-1.2-0.2-2.1-0.3c1.7,4.3,3.2,8.2,4.6,12.2c0.6,1.6,1.4,2.9,3.1,3.6c1.3-1.1,2.6-2.2,4.1-3.1c1.8-1.2,3.8-1.8,6-1.2
			c5.2,1.3,10.5,2.6,15.7,4c1.2,0.2,2.2,0.7,3.5,1c-0.1,2.6-0.4,5-1.4,7.6c-0.7-0.4-1.3-0.6-1.8-1c-1.2-0.8-2.3-1.7-3.5-2.6
			c-2.6-2.1-5.1-4.2-8.1-5.6c-2.6-1.2-5.1-1.6-7.9-0.8c-2.3,0.7-3.1,1.5-3.2,3.9c-0.2,1.7-0.1,3.5-0.2,5.1c0,0.8,0.2,1.8-0.2,2.3
			c-0.9,1-0.4,1.9-0.1,2.7c0.8,2.1,2,3.9,3.6,5.5c2.4,2.5,5.3,4.3,8.3,6c1.7,1,3.3,1.5,5-0.1c0.2-0.2,0.6-0.2,0.9-0.4
			c1.7-1,3.5-1,4.9,0.5c1.8,1.9,4.2,2.8,6.5,4c0.8,0.4,1.7,0.8,2.4,1.4c0.9,0.7,1.7,1.6,2.6,2.4c-1.4,1.1-2.6,1.2-3.8,0.2
			c-1.3-1-2.7-1.8-4.2-2.6c-3.3-1.8-6.7-2.8-10.4-1.2c-2.3-1.5-4.8-2.6-7.9-2.2c0.5,1.5,0.9,2.8,1.4,4.1c1,2.6,2.1,5.3,3.1,7.9
			c0.4,1.2,0.5,2.5,1.1,3.6c1.7,3.4,3.4,6.7,5.4,9.9c1.3,2.2,2.6,4.2,3.6,6.6c0.5,1.2,1.2,2.4,1.9,3.6c1.6-1.5,2.9-2.9,4.4-4.1
			c2.5-2,5.2-3.1,8.4-1.7c2.3,1.1,4.1-0.2,6.2-1.2c-0.5-0.7-0.9-1.3-1.3-1.8c-1.2,0.2-2.2,0.5-3.2,0.7c-1,0.2-2.1,1-3.1,0
			c0.7-0.9,1.5-1.7,2.2-2.6c1.7-2.2,2.3-4.6,1.5-7.5c-0.7-2.4-1.9-4.6-3.5-6.6c-0.7-0.8-1.2-1.7-1.9-2.4c0.2-0.4,0.4-0.6,0.6-0.8
			c0.8-1.1,1.3-1.2,2.4-0.2c0.2,0.2,0.5,0.4,0.7,0.7c1,1.3,2.3,1.8,3.9,2c0.7,0.1,1.5,0.3,2.3,0.5c-0.6,1.7-0.9,3.1-1.5,4.4
			c-0.5,1.2-0.2,2.2,0.2,3.4c2.5,5.5,6.5,9.6,11.4,12.8c2,1.3,3.6,1.8,5.8,0.4c1.9-1.2,3.9-1,5.9-0.1c4.6,2.1,8.9,4.7,12.7,7.9
			c1.2,1,2.4,1.7,4,2c1,0.2,2,0.5,3.1,0.7c0.1,2.2,0.6,4.1,0.3,6.2c-0.9,0.1-1.6,0.1-2.2,0.2c-1.2,0.2-1.9-0.2-2.6-1.4
			c-0.9-1.6-1.9-3.2-3.1-4.6c-3.1-3.6-7.3-5.6-11.5-7.5c-1.4-0.7-2.6-0.6-3.6,0.4c-1.7,1.5-3.4,3.1-5.1,4.6
			c-1.7-0.6-0.3-2.4-1.2-3.6c-1.6,1.9-2.1,3.9-1.6,6.2c0.2,1.2,0.6,2.3,1,3.4c2,5.1,0.1,9.8-1.3,14.7c-2.6-1.3-3-2.4-2.1-4.7
			c0.7-1.7,1.5-3.6,1.4-5.3c-0.2-4.1-1.7-7.8-4.6-10.7c-3.1-3.1-6.8-5.5-10.8-7.3c-2.7-1.2-5-1.2-7.5,0.3c-0.2,0.2-0.6,0.3-0.8,0.5
			c-1.6,1-2.8,2.2-2.9,3.7c0.7,1.7,1.6,3,1.6,4.2c0,1.4,0.6,2.2,1.3,3.1c1.2,1.5,2.6,2.8,3.9,4.3c0.7,0.7,1.4,1.4,1.6,2.5
			c-0.1,0.1-0.2,0.2-0.3,0.3c-2.6-2.3-5.2-4.6-8-7c0.1,0.7,0.1,1.2,0.1,1.6c0.5,2.6,1.8,5,3.6,7c2.1,2.5,4.7,4.2,7.3,6.1
			c2.4,1.7,4.8,2.2,7.6,1.7c2-0.4,4.1-0.4,6.1,0.1c1.8,0.4,3.8,0.8,5.6,0.8c4.7-0.1,9.4,0.5,14.1,0.9c2.6,0.2,5.1,0.3,7.7,0.4
			c2.6,0.1,5.1,0.2,7.7,0.3c0.4,0,0.8-0.2,1.4-0.2c-2-2.2-4.4-3-6.8-4c1.2-3,0.6-6,0.6-9c0.3,0.2,0.5,0.6,0.7,0.9
			c1.3,2.2,2.6,4.3,4.1,6.3c2.2,3,5,5.2,8.6,6.4c1.1,0.3,2.2,0.7,3.3,0.2c1.3-0.4,2.7-0.2,4.1,0.2c3.6,1.1,7.4,1.1,11.3,0.3
			c-1.4-1.2-2.6-2.3-3.7-3.3c-1.6-1.3-2.6-2.9-3.1-5c-0.3-1.7-0.7-3.2-1.2-4.8c-0.2-1-0.4-2-0.6-3.1c0.7,0.7,1.2,1.5,1.6,2.3
			c1.2,2.2,2.2,4.6,3.6,6.6c1.8,2.9,4.1,5.5,7.2,7.3c1.8,1.1,3.7,1.8,6.1,1.7c-0.7-1.2-1.4-2.2-2.1-3.3c1.6,0.4,3.1,1,4.4,1.7
			c0.7,0.4,1.3,0.3,2-0.2c1.3-1,2.5-2.2,3.1-3.8c0.3-0.7,0.7-1.5,1.1-2.2c0.1,0,0.2,0.1,0.3,0.1c0.2,1.2,0.2,2.5,0.4,3.5
			c0.8,0.5,1.4,0.8,2.1,1.2c1.2,0.7,2.3,1.5,3.6,2.2c2.4,1.4,4.9,2.2,7.7,2.2c2.5-0.1,4.9,0,7.4-0.1c0.5,0,1-0.1,1.9-0.2
			c-0.9-1-1.5-1.8-2.2-2.4c-0.8-0.7-1.1-1.5-1.1-2.6c0-4.3-1.2-8.2-3.7-11.8c-1.7-2.4-3.9-4.1-6.2-5.7c-0.7-0.5-1.7-0.8-1.8-1.9
			c0.5-0.7,1.1-0.7,1.7-0.2c1.3,0.8,2.8,1.6,4.1,2.5c3.7,2.7,6.3,6.3,7,10.8c0.7,3.8,2.6,6.8,5.1,9.4c1.7,1.7,3.7,3.2,6.4,3.3
			c2.8,0.1,5.5,0.2,8.4,0.3c1.6,0.1,3.1,0.2,5,0.2c-0.7-0.8-1.2-1.3-1.7-1.8c-1.6-1.7-3.1-3.4-4.7-5.1c-0.9-1-1.5-2.2-1.6-3.6
			c-0.2-2.6-0.2-5.3,1-7.8c0.3-0.6,0.5-1.4,1.7-1.4c0.7,1.8,1.5,3.7,2.2,5.5c-1.2,0.7-2.3,1.3-3.5,2c1.6,3.2,3.7,5.8,6,8.3
			c1.6,1.7,3.3,3.2,5.5,4.1c1.7,0.7,3.3,0.7,5,0c2.2-1,3.4-2.9,4.2-5c0.2-0.4,0.3-0.7,0.5-1.2c0.6,1,0.8,2.1,1.5,2.6
			c2.4,1.7,4.9,3.1,7.4,4.6c0.4,0.2,0.8,0.5,1.2,0.5c2.4,0.2,4.7-0.1,7-1.5c-0.5-2.4-1.1-4.8-1.5-7.2c-0.8-5-3.8-8.6-7.6-11.7
			c-2.2-1.7-4.6-1.7-7.1-1.6c-1,0-1.4,0.6-1.4,1.6c-0.1,1.4-0.2,2.7-0.2,4.1c-0.1,1-0.2,1.9-1.2,2.6c-0.3-0.5-0.7-0.8-1-1.3
			c-1.5-2.1-2.8-4.2-4.4-6.1c-2.3-2.8-5.5-4.1-9.1-4c-2.2,0.1-4,1.1-5.7,2.2c-0.8,0.5-1.7,1.1-2.4,1.6c-4.4-1.7-8.3-4.1-10.8-8
			c-5.4,2-6.7,1.9-12-0.2c-0.3-0.1-0.6-0.2-0.9-0.3c-2-0.9-3.8-2.2-4.8-4.2c-1.2-2.4-2.2-4.8-3.2-7.2c-0.1-0.2,0-0.4,0-1
			c0.7,0.7,1.2,1.2,1.6,1.7c2.4,2.4,4.6,5,7.1,7.1c2.2,1.9,4.9,2.8,7.9,2c1.3-0.3,2.7-0.5,4.1-0.7c0.4-0.1,0.8-0.3,1.2-0.4
			c0.2-4.7-0.6-9-3.5-12.8c-0.9-1.2-1.8-2.6-2.3-4.1c-0.3-1.1-0.9-1.5-1.9-1.7c-1.7-0.4-3.4-0.7-5-1.3c-1.3-0.5-2.5-0.4-3.6,0.1
			c-1.5,0.7-2.9,1.6-4.4,2.4c1.3,3,2.6,5.7,4,8.9c-2.1-0.7-3.1-2.2-3.9-3.5c-1.8-3.1-4.2-5.5-7.5-7.1c-4-2.1-7.9-4.3-12.7-4.4
			c-0.8,1.1-1.7,2.2-2.5,3.2c0.5,0.6,0.9,1,1.3,1.4c1.3,1.4,2.1,3,1.8,5c-0.2,1.7,0.2,3.4,1.1,5c2.2,4.2,5,7.8,9.4,9.9
			c1.5,0.7,2.9,1.1,4.6,0.9c1.1-0.2,2.1-0.2,3.1-0.2c1.3,0.1,2.5,0.6,3.2,2c-2,0.3-3.7,0.6-5.5,0.9c-1.2,0.2-1.9,0.9-2.1,2.2
			c-0.3,2.2-0.7,4.2-1.7,6.3c-1.3-1.3-2.7-2.4-3.9-3.7c-2.2-2.5-4.6-4.7-7.8-5.9c-2.4-0.9-4.9-1.5-7.5-1.4
			c-1.1,4.1-1.1,7.8,1.2,11.3c0.6,0.9,1,1.9,1.4,2.8c0.2,0.3,0.2,0.7,0.3,1.1c-2.5-2.6-4.6-5.2-6.7-7.9c-0.6-0.7-0.6-1.4-0.2-2.2
			c0.7-1.6,1.1-3.2,1.7-4.8c-0.1-0.1-0.2-0.2-0.3-0.2c-1.9,1.6-3.8,3.1-5.7,4.7c-3.7-3.2-7.7-5.7-12.7-7.4c1.8-0.6,3.2-1.1,4.5-1.5
			c0-1.1,0-1.9,0-2.9c-0.7,0.1-1.4,0.2-2,0.3c-2.5,0.6-5,1.2-7.5,1.8c-1.2,0.3-2.2,0.3-3.3-0.1c-1.6-0.6-3.1-1.1-4.6-1.8
			c-2.6-1.2-4.6-3.1-6.3-5.3c-4-5-3.1-10.3-0.6-15.6c0.2,0.9,0.2,1.8,0.2,2.7c0,3.1,0.6,6.1,2.2,8.9c3.3,5.3,7.9,8.4,14.4,7.9
			c0.2,0,0.4-0.1,0.6,0c2.2,0.7,3.9-0.5,5.5-1.7c0.5-0.4,1-1.1,1.2-1.7c0.7-2.6,0.1-5-1.2-7.2c-3.7-6.7-9-11.5-16.6-13.9
			c-2.6,1.6-5.5,3.3-8.4,5c-1.1,0.7-2.2,1-3.3,0.3c-1.5-0.7-2.9-1.5-4.3-2.4c-2.2-1.4-4.2-3-6.4-4.4c-1.3-0.8-2.7-1.5-4.4-1.7
			c-3.9-0.5-7.8-1.4-11.5-2.9c-5-2-8.2-5.7-10.8-10.1c-0.4-0.7-0.7-1.7-0.8-2.6c-0.4-3.7,0.7-7.1,2.5-10.3c0.1,1.1,0.1,2.2-0.2,3.2
			c-1.2,3.7-0.2,6.8,2.2,9.8c3.1,3.7,6.5,7,11,8.9c0.9,0.3,1.7,0.4,2.6,0.1c1.8-0.6,3.7-0.7,5.5-1.3c1.2-0.4,2.3-1.4,3.5-2.2
			c0.2-0.1,0.2-0.5,0.2-0.7c-0.4-3.6-0.6-7.3-3.2-10.2c-1.2-1.3-2.4-2.6-3.6-4c-1.7-2-3.6-3.5-6-4.4c-2.2-0.9-4.4-1.8-6.6-2.8
			c-1.6,0.7-3.1,1.6-4.8,2.3c-0.1-0.1-0.2-0.2-0.2-0.3c0.4-1.2,0.8-2.3,1.2-3.2c1.7,0,3.1,0,4.6,0c4.9,0,9,1.7,12.4,5.3
			c1.2,1.2,2.2,2.5,3.4,3.6c1.2,1.2,2.4,2.2,3.9,3.5c0.6-2.2,1-4.1,1.5-6c0.2-0.7,0.2-1.4,1.2-1.7c1.8-0.5,3.6-1.2,5.5-1.6
			c1.9-0.4,3.7-0.1,5.1,1.4c1.5,1.5,3,3,4.4,4.6c2.2,2.4,4.2,5,7.3,6.3c1.1,0.5,1.8,1.2,2.3,2.2c0.7,1.4,1.5,2.8,2.2,4.2
			c0.2,0.4,0.3,0.8,0.6,1.4c-1.7-0.4-3.1-0.8-4.9-1.2c0.6,1.1,0.9,1.7,1.2,2.3c2.3,3.9,5.4,7,9.1,9.6c2,1.4,4.1,1.9,6.8,2.1
			c-1.1-1.5-2-2.8-3.1-4.4c0.7,0.1,1.1,0.1,1.3,0.2c2.2,0.8,4.4,1.8,6,3.6c1.7,1.8,3.4,2.4,5.4,2.1c-2.4-3.7-4.6-7.5-5.3-12
			c1.4,1.4,2.6,3,3.8,4.6c2.4,3.1,5.1,5.7,8.6,7.5c0.9,0.4,1.7,0.5,2.6,0.2c1.7-0.4,3.4-0.7,5-1c2-0.2,2.2-0.4,2.9-2.4
			c0.8-2.7,0.1-5.2-1.3-7.5c-1.6-2.6-3.6-4.9-6-6.9c-1.9-1.7-4.1-3-6.5-3.6c-2.2-0.5-4.3-0.7-6.4,0.2c-0.5,4.5,2.1,9,5.7,10
			c-0.3-1.8-1.3-3.5-1-5.4c2-0.4,2.7,0,3.2,1.7c0.2,0.9,0.4,1.8,0.7,2.6c0.7,1.7,1.5,1.9,2.9,1.4c2.9-1,2.9-0.9,4.6,1.7
			c0.8,1.3,1.5,2.7,1.5,4.6c-0.7-0.1-1.2,0-1.7-0.2c-1.9-0.7-3.8-1.5-5.7-2.3c-0.8-0.3-1.7-0.8-2.6-1.1c-5.1-1.2-8.5-4.3-10.3-9.2
			c-0.3-1-0.8-1.5-1.7-1.9c-1.6-0.7-3.1-1.5-4.6-2.4c-1-0.6-1.9-1.4-2.9-2.1c-2.2-1.6-4.7-2.6-7.6-2.4c-1.1,0.1-2.2,0-3.6,0
			c0.4-1.2,0.7-2.2,1.2-3.1c1.7,0.2,3.1,0.2,4.5,0.5c2.4,0.3,4.6,1.2,6.7,2.3c3.6,2.1,7.5,3.1,11.8,2.5c1.8-0.3,3.7-0.1,5.5,0.1
			c5.8,0.7,13.2,7.5,14.5,14.2c0.7,3.5,1.3,6.9,1.9,10.3c0.2,1.2,0.5,2,1.5,2.6c1,0.5,1.7,1.3,3.1,1.2c1.3-0.1,2.7,0.2,4.1,0.3
			c0.5,0.1,1,0.2,1.5,0.2c2.7-0.3,5.2-1.2,7.6-2.6c0.8-0.5,1.1-1.1,0.9-2c-0.3-3.1-1-6-2.2-8.8c-1.1-2.6-2.6-4.7-5.2-6
			c-0.8-0.4-1.6-1-2.4-1.4c-2.3-1.4-4.8-2.1-7.5-2c-1.2,0.1-2.4-0.1-3.6-0.3c-1.6-0.3-2.5-1.6-2.6-3.3c2.2,0.2,4.3,0.3,6.5,0.5
			c4.6,0.3,8.9,1.2,12.9,3.5c5.1,2.9,5.3,2.9,10.6,0.3c0.7-0.3,1.4-0.5,2.2-0.3c1.8,0.4,3.6,0.7,5.5,1c4.1,0.8,8.3,1.7,12.1,3.6
			c1.2,0.7,2.7,1.1,4.1,1.3c1.3,0.3,2.7,0.3,4.1,0.5c4,0.3,7.9,0.8,11.7,2.2c2.9,1,4.9,2.7,5.9,5.7c0.2,0.6,0.6,1.1,0.7,1.7
			c0.7,2.2,2.3,3.6,4.3,4.5c3.5,1.6,5.5,4.4,7.4,7.5c-1.3,2.2-1.6,2.1-3.1,0.4c-1.7-1.9-3.6-3.7-5.4-5.5c-2.6-2.6-5.4-4.9-7.8-7.6
			c-3.4-3.8-7.5-5-12.3-4.2c-0.6,0.1-1.3-0.1-1.7,0.5c0.7,1.3,1.7,2.4,2.1,3.7c0.9,2.7,1.7,5.6,2.2,8.4c0.3,2.1,1.3,3.3,2.9,4.7
			c3.3,2.9,7,3.1,11,1.9c0-1.2,0-2.3,0-3.6c-1.6-0.5-3.1-1-4.6-1.6c-4.4-1.6-6.6-4.7-7-9.6c1.1,0.1,2.1,0.1,3.1,0.2
			c0.2,1.4,0.3,2.6,0.4,3.8c0.1,0.9,0.5,1.6,1.6,1.7c1.3,0.2,2.6,0.7,3.8,1c2.2,0.6,4,1.7,5.4,3.5c2,2.6,4.2,4.9,6.9,6.8
			c2.6,1.8,5.3,1.2,8.4,1.2c-1.7-3-3.2-5.6-4-8.7c0.5,0.2,0.8,0.5,1.2,0.7c2.2,2.2,4.3,4.3,6.4,6.5c1.7,1.9,3.6,3.1,6.2,2
			c0.1,0,0.2-0.1,0.2-0.1c2.2,0.2,3.6-0.9,4.6-2.7c0.1-0.1,0.2-0.1,0.4-0.2c0.2,0.1,0.3,0.2,0.5,0.2c0.2,0.2,0.6,0.6,0.8,0.9
			c2,3,4.8,4.5,8.3,4.8c0.7,0.1,1.6,0.2,2.3,0.4c1.5,0.5,3.1,0.8,4.5,1.6c4.3,2.4,7,6.3,9.5,10.4c2.2,3.6,2.2,7.2,1.7,11.3
			c-2,0-3.9,0-5.9,0c0.7,2.7,1.5,5.2,1.8,7.7c0.4,3.4,2,6,4.5,8.1c1.2,1.1,2.4,2.1,3.7,3c0.5,0.4,1.2,0.7,1.7,0.7
			c2.6,0.2,5.3,0.5,7.9,0.7c1.7,0.2,3.2,0.2,5.2,0.4c-1.4-2.7-2.6-5.2-4-7.6c-2.8-4.8-5.8-9.5-8.6-14.2c-3.6-5.9-7-11.8-10.5-17.7
			c-4.5-7.5-9.2-14.7-13.5-22.2c-1.5-2.6-3.6-3.9-6.3-4.8c-0.2,2.2,1.3,3.6,2.2,5.5c-3.7-1.2-7.1-3.1-11.3-2.4
			c0.7,1.1,1.2,2.1,1.8,3c0.7,1.1,1.5,2,2.2,3.1c0.6,1.1,0.6,1.1,0.1,2.6c-1.8-1.7-3-3.9-4.2-6c-0.3-0.6-0.7-1.2-1.2-1.5
			c-3.1-1.7-6.4-3.1-10.2-2.2c-1.9,0.5-3.8,0.2-5.5-0.7c-2.3-1.2-4.8-2.2-7.2-3.4c-0.2-0.2-0.5-0.3-1-0.7c0.3-0.2,0.5-0.2,0.7-0.3
			c3.1-1.3,6-1.4,8.9,0.3c0.8,0.5,1.7,0.9,2.7,0.9c3.1,0.2,6.3,0.7,9.3,1.9c1.8,0.7,3.7,1.2,5.7,1.7c1.9,0.5,3.9,0.8,6,0.6
			C278.8,78.4,279.1,77.8,279.4,76.8z M222.9,98.5c-0.7-0.5-1.5-1-2.2-1.6c-1.3-1.4-2.6-2.8-3.8-4.3c-1.7-2.2-4-3.4-6.5-4.2
			c-1.5-0.5-3,0.2-4.4,0.7c-0.2,0.1-0.4,0.5-0.5,0.7c-1.8,4.3-1.8,4.5-0.7,8.9c0.2,0.5,0.2,1,0.4,1.6c1.2,5,5.8,9,10.8,9.8
			c1.1,0.2,2.2,0,3.4,0.1c2.6,0.2,3.3-1.3,3.6-3.1c0.1-0.5,0.2-1.1,0.3-1.6c0.3,0.1,0.4,0.1,0.4,0.2c0.2,0.2,0.5,0.5,0.7,0.7
			c2.7,2.8,5.3,5.7,8.9,7.5c1.3,0.7,2.5,0.9,3.7,0.2c0.9-0.6,1.7-0.4,2.6,0c2.2,1.1,4.5,1.7,6.6,1.7c1.2,1.3,2.2,2.6,3.5,3.8
			c1.2,1.2,2.9,1.4,4.7,1.3c-0.1,1.5,0.1,2.8-0.2,4.1c-0.5,2.2,0.2,4.1,1.2,6c0.5,0.9,1.1,1.8,1.8,2.6c2.2,2.5,4.4,5,8.1,5.1
			c2.5,0.2,4.9,0.7,7.7,0.2c-0.5-0.7-0.8-1.3-1.2-1.8c-3-3.5-4.6-7.4-3.8-12c0.1-0.7,0-1.4,0-2.1c-1.7-0.7-3.1-1.2-4.6-1.8
			c-3.5-1.3-7-2.6-9.9-4.8c-1.8-1.3-3.7-2.2-6-2.1c-0.6,0-1.3-0.3-1.7-0.7c-1.3-1.4-2.6-2.9-3.7-4.4c-0.7-0.9-1.3-2-1.7-3.1
			c-0.9-2.5-1.7-5-2.6-7.5c-0.2-0.8-0.7-1.4-1.5-1.7c-1.2-0.6-2.5-1.2-3.6-2c-2.6-1.7-5.1-3.5-6.8-6.4c1-1.4,2-2.7,3-4.1
			c-0.5-1-0.9-1.7-1.3-2.6c-2.5-5.6-6.1-10.3-11.8-13.2c-1.5-0.7-2.6-0.9-4-0.3c-0.9,0.4-1.3,0.8-1.5,1.8c-0.2,2.5-0.6,5-1,7.5
			c-0.1,0.8,0.1,1.5,0.6,2.2c2.5,3.7,5.8,6.5,9.6,8.7c0.4,0.2,0.8,0.5,1.4,0.8c-0.7,1-1.4,1.8-2,2.7
			C220.4,94.2,222.3,95.8,222.9,98.5z M264.8,108.6c1.8,0,3.5,0,5.1,0c0.8,0,1.3,0.2,1.8,0.9c1,1.5,2.1,2.9,3.2,4.3
			c2.3,2.7,4.9,5.2,8.9,5.3c0.2,0,0.4,0.2,0.6,0.2c1.6,0.2,3.1,0.4,5.1,0.7c-1.1-1.7-2-3-2.7-4.3c-0.5-0.8-1.1-1.2-2-1.3
			c-1.6-0.2-3.1-0.6-4.6-1c-1.2-0.2-2.1-0.9-2.6-1.9c-1.3-2.3-1.4-4.8-1.2-7.7c1.6,1.7,2.9,3.1,3.6,4.8c0.5,1.1,1.2,1.8,2.4,2.1
			c2.2,0.3,3.6,1.7,5,3.2c2,2.2,4.1,4.1,6.3,6c0.4,0.4,1.2,0.7,1.7,0.7c2.2-0.2,4.3-0.5,6.4-0.7c0.7-7.3-6.5-15.9-13.7-17.6
			c-1.3,1.9-1.2,4.3-2.2,6.6c-1.3-1.7-2.5-3.2-3.7-4.9c1.2-0.7,2.3-1.4,3.5-2.2c-2-0.8-14.7-2.7-16.7-2.6c1.6,2.5,3.1,4.9,4.6,7.5
			c-0.6,0.4-1,0.7-1.5,1.1c-3.6-4.7-7.1-9.2-13.4-10.3c-1,2.1-1.9,4.1-3,6.3c-0.5-0.9-0.7-1.5-1.1-2c-0.8-1.5-1.7-3-2.6-4.5
			c-0.6-0.9-1.4-1.7-2.6-2c-2.8-0.7-5.5-0.2-8.3,0.5c0,1.4,0.1,2.6,0,3.9c-0.2,3.1,0.8,5.7,2.6,8.2c1.6,2.2,3.8,3.9,5.9,5.5
			c2,1.7,3.9,1.8,6.2,0.6c3.3-1.8,3.3-1.7,6.1,1c1,0.9,2,1.9,3.2,2.2c2.3,0.7,4.8,0.4,7.3,0.3c0-1.6,0-2.9,0-4.3
			c-2-0.6-3.8-1-5.6-1.6c-1.7-0.6-3.1-1.6-4-3.1c-1.2-1.9-1.7-4.1-2.1-6.4c2.9,0.3,2.9,0.4,3.5,2.7
			C264.3,105.9,264.5,107.1,264.8,108.6z M122,72.7c0.6-1.2,0.9-1.9,1.2-2.6c0.6-1.3,1-2.7,0.8-4.2c-0.4-3.6-1.8-6.9-4.3-9.6
			c-2.9-3.4-6.5-5.7-10.6-7.5c-2.9-1.2-5.2-0.8-7,1.7c-1.3,1.9-2.2,4.1-3.1,6.2c-0.2,0.3,0,0.9,0.2,1.3c1.3,3.1,2.6,6.4,4,9.5
			c0.2,0.4,0.3,0.7,0.5,1.2c-0.8,0.1-1.5,0.1-2.1,0.2c-0.7,2.4-0.7,2.4,1,3.7c0.8,0.6,1.7,1.1,2.4,1.7c1.9,1.7,4.1,2.3,6.5,1.7
			c1.7-0.4,3.6-0.4,5.2-1.1c2.2-0.8,4.3-1.2,6.6-0.9c1.7,0.2,3.3,0.7,5.4,1c-0.9-1.2-1.7-2.1-2.3-3c-0.5-0.7-1-0.7-1.7-0.5
			C123.9,72,123.2,72.2,122,72.7z M137.8,80.6c0.7,5.5,2.4,10.5,4,15.7c0.2,0.7,0.8,1.5,1.4,1.8c3.1,1.8,6.3,3.6,9.5,5.3
			c0.7,0.3,1.7,0.5,2.5,0.3c1.7-0.5,3.3-1.2,4.9-2.1c1.7-0.9,2.6-2.2,1.7-4.2c-0.2-0.5-0.2-1.2-0.2-1.7c-0.2-1.9-0.6-3.8-1.7-5.5
			c-2.5-3.7-5-7.4-9-9.9c-1.9-1.2-4.1-1.6-6.2-1.2C142.6,79.6,140.3,80.1,137.8,80.6z M188.3,66.8c0.2,0.3,0.2,0.5,0.3,0.7
			c1.8,2,3,4.3,3.7,6.9c0.3,1,0.7,2.1,1.2,2.9c3.6,5,7.7,9,14.1,10.2c1.4,0.2,2.8,0.5,4.6,0.8c-1.3-2.4-2.4-4.4-3.5-6.4
			c-0.7-0.1-1.3-0.1-2-0.2c-0.3-2.7,0.2-5.2,0.8-7.7c0.6-2.5,1.3-4.9,2-7.4c-0.1-0.1-0.2-0.2-0.3-0.2c-1.2,0.9-2.5,1.9-3.6,2.7
			C199.6,64.1,192.2,63.6,188.3,66.8z M269.3,129.3c1.6,3.5,3.6,6.3,6.4,8.6c2.6,2.2,6,2.7,9,1.2c1.2-0.6,1.7-1.4,1.8-2.6
			c0.2-2.2-0.4-4.1-1.5-5.9c-1-1.6-2.2-3.1-3.1-4.6c-1-1.7-2.3-3.2-3.9-4.5c-3.2-2.6-2.4-2.5-6.6-1.7c-0.9,0.2-1.8,0.4-2.9,0.6
			c0.5,1.3,0.9,2.6,1.5,3.7C271,126.3,271.5,128,269.3,129.3z M283.7,123.1c0.4,3.4,3.6,12.4,6,17.2c4.5,0.7,8.9,1.6,13.8,1.3
			c-0.8-1.2-1.4-2-2-2.8c-0.9-1.2-2.1-2.2-3.6-2.6c-1.4-0.4-2.9-1-4.2-1.7c-3.1-1.6-4.1-4.5-4.4-7.8c1.3,1.2,2.5,2.7,3.8,4
			s2.6,2.6,4.6,2.9c0.7-3.5-1.2-7.3-4.7-9.6C290.2,122,287.1,121.3,283.7,123.1z"/>
		<path fill="#000000" d="M278.8,286.3c-0.5,0.2-0.9,0.2-1.2-0.3c-0.6-1.1-1.2-2.1-1.7-3.1c-0.2-0.6-0.4-1.2-0.6-1.9
			c-1.2-5.1-5.3-7.4-9.6-9.2c-1.2-0.5-2.6-0.2-3.9-0.3c-2.1-0.1-4.1-0.1-6.1-0.3c-1.3-0.1-2.6-0.6-3.6-1.5c-2.4-2.1-5.4-2.5-8.4-2.8
			c-4.5-0.5-8.9-1.1-13.4-1.4c-4.8-0.3-9.6-0.5-14.5-0.7c-1.4-0.1-2.4,0.7-3.3,1.5c-2.8,2.4-6,3.4-9.6,3.8c-0.4,0-0.8,0.1-1.2,0.1
			c-3.7,0-7.5,0-11.3,0.7c-2.7,0.5-5.6,0.2-8.5,0.3c-6.2,0.2-12.4-0.2-18.6-0.9c-0.7-0.1-1.6-0.2-2.4-0.1c-3.1,0.5-6.2-0.2-9.3-0.5
			c-1.5-0.2-3-0.7-4.2-1.5c-2.1-1.2-4.1-2.3-6.5-2.9c-0.2-0.1-0.3-0.2-0.7-0.4c1.4,0,2.6,0,3.9,0c-1.7-5.5-1.2-11.2-1.2-16.9
			c-0.6,0.1-1.1,0.1-1.5,0.2c-1.7,0.3-3.2,0.7-4.9,0.9c-2.1,0.3-4,0.8-5.8,1.9c-0.4,0.2-1,0.3-1.4,0.2c-2.6-0.9-5.2-0.8-7.9-0.4
			c-5.1,0.7-10.2,1.5-15.3,2.1c-3.3,0.4-6.7,1-10.1,0.4c-6.5-1.1-12-4.1-16.8-8.4c-3-2.6-5.7-5.6-7.5-9.1c-2.1-3.8-4.3-7.5-5.9-11.6
			c-4.5-11.2-9.2-22.3-13.8-33.4c-3.4-8-6.8-16.1-10.2-24.2c-9.7-22.9-19.4-45.8-29.1-68.7C10.7,92.3,8.4,87,6.1,81.7
			c-0.4-1.1-0.7-2.3-0.9-3.4C5.1,77.7,5,77,4.7,76.4C4,74.6,3.2,72.8,2.3,71c-1.5-3.1-1.9-6.3-1.9-9.7c0-5,0-9.9,0-14.9
			C0.3,39.6,0,32.9,0.1,26.1c0.1-4.6,0.3-9.4,1.7-13.9C2.7,9,4.3,6.5,6.6,4.1c3-3.2,6.6-4.2,10.8-4c1.7,0.1,3.5,0.7,5.2,1.1
			c6.5,1.3,13.2,2.5,19.6,3.9c10.6,2.3,21.1,5,31.7,7.3c9.4,2.1,18.7,4.1,28.1,6.1c2.2,0.5,4.2,1.2,6.4,1.7
			c5.3,1.2,10.5,2.5,15.8,3.8c1.7,0.4,3.4,1.1,5,1.7c0.7,0.2,1.2,0.7,1.7,1.2c-0.1,0.2-0.1,0.2-0.2,0.4c-0.8-0.2-1.6-0.2-2.4-0.5
			c-2.8-0.8-5.5-1.9-8.4-2.4c-8.3-1.4-16.5-3.3-24.6-5.4c-8-2.1-16.1-3.6-24.2-5.4c-2.1-0.5-4.1-1-6.2-1.5c-5.9-1.4-11.7-3-17.5-4.3
			c-3.1-0.7-6.3-0.9-9.4-1.6c-5.5-1.1-10.8-2.4-16.3-3.6c-4.1-0.9-8.1-1.1-12.1,0.5C8.1,3.7,7.1,4.7,6.7,6.6C5.8,10,6,13.4,7.5,16.7
			c5.7,12.7,11.3,25.4,16.9,38.1c3.5,7.8,6.9,15.6,10.4,23.4c3.8,8.4,7.7,16.7,11.4,25.1c2.5,5.6,4.9,11.3,7.4,16.9
			c2,4.4,4.1,8.8,6,13.2c4.3,9.5,8.6,19,12.8,28.6c5.3,11.9,10.7,23.9,16,35.9c2.1,4.6,3.9,9.4,6,14.1c2.2,5.2,4.9,10.2,8.8,14.3
			c4.5,4.9,9.5,9,15.6,11.8c4.7,2.2,9.7,2.6,14.7,2.4c0.2,0,0.2-0.1,0.4-0.1c5.4,0.3,10.5-1.2,15.7-1.8c4.9-0.6,9.7-1.1,14.6-1.6
			c6.9-0.7,13.8-1.4,20.7-2.1c6.5-0.7,12.9-1.3,19.4-1.9c4.8-0.4,9.6-0.8,14.4-1.2c7.6-0.6,15.3-1,22.9-1.7
			c8.3-0.7,16.6-1.7,24.8-2.6c5.2-0.6,10.3-1.2,15.6-1.8c3.7-0.4,7.5-0.6,11.6-0.2c-2.8,2.5-6,1.9-9,2.6c2.3,0.4,4.6,0.1,6.9,0
			c2.3-0.1,4.7-0.2,7-1.5c-1.2-0.2-2.3-0.5-3.7-0.7c0.8-0.6,1.5-0.7,2.2-0.7c3.6-0.4,7.4-0.8,11-1.2c8.8-1,17.5-2.2,26.3-3.1
			c3.5-0.4,7-0.4,10.4-0.8c3-0.3,5.9-0.8,8.8-1.3c4.5-0.8,8.9-1.7,13.4-2.6c1.3-0.2,2.6-0.9,3.9-1.3c0.3-2,0.5-3.7-0.3-5.5
			c-0.5-1.2-0.7-2.4-1.2-3.6c-1.1-2.6-2.2-5.1-3.6-7.5c-6-10.3-12.3-20.4-18.3-30.7c-4.6-7.9-8.9-15.9-13.4-23.9
			c-0.7-1.4-1.3-3-1.7-4.6c0.2,0.2,0.5,0.5,0.7,0.7c4.3,5.7,7.6,12.1,11.3,18.2c6.9,11.5,13.8,23,20.8,34.5c1.9,3.2,3.8,6.5,5.6,9.9
			c1.8,3.3,2.2,6.9,2.1,10.5c-0.1,2-1.1,3.6-2.8,4.8c-2.9,1.8-6,2.6-9.4,3.1c-3.1,0.6-6.3,0.9-9.4,1.7c-2.6,0.7-5.1,0.9-7.8,1
			c-3.4,0.1-6.9,0.6-10.3,1c-8.2,1-16.4,2.1-24.6,3.1c-2.9,0.3-5.8,0.7-8.7,1c-1.7,0.1-3.1,0.7-4.1,2c-0.2,0.3-0.6,0.5-0.9,0.8
			c-0.8-0.4-1.7-0.9-2.6-1.2s-1.8-0.5-2.7-0.3c-4.4,0.5-8.8,1.1-13.2,1.7c-7.5,1.1-14.9,2.2-22.4,3.4c-1.5,0.2-3,0.7-4.3,1.3
			c-3.4,1.4-6.6,3.1-10.3,4.1c-1.9,0.5-3.6,1.7-5.3,2.6c-6.8,3.6-13.6,7.1-20.4,10.6c-1.2,0.7-1.9,1.4-2.1,2.8
			c-0.2,1.7-0.5,3.3-0.8,5.3c-1.4-1.2-2.1-2.5-1.5-4.1c0.5-1.4,1.2-2.9,2.1-4.1c1.7-2.2,2.8-4.6,2.7-7.5c0-0.5,0.2-1,0.3-1.7
			c2.1,0.8,1.3,2.6,1.7,4c2.1,0,3.8-0.8,5.3-2c2.4-2,5.1-3.2,7.9-4.4c1.8-0.7,2.3-1.2,3.3-2.6c-1.2,0-2.2-0.2-3.3,0
			c-3.9,0.7-7.8,1.4-11.7,2.3c-4.7,1.2-9.4,2-14.2,2.5c-2.5,0.3-4.9,0.9-7.5,1.5c-0.4-0.8-0.9-1.8-1.5-2.9c-3.1,0.7-5.5,2.2-7.2,4.5
			c-2.3,3-5.1,5.3-8.2,7.5c-3.2,2.2-6.1,4.8-9,7.5c-1.9,1.7-3,2.2-5.5,2.4c0.4-0.5,0.7-0.9,1-1.2c3.7-3.4,7.7-6.5,11.9-9.3
			c1.6-1.1,2.8-2.3,3.8-4c0.3-0.6,0.9-1.1,1.5-1.5c0.8-0.6,1.7-1,2.6-1.5c2-1.2,2.6-2,3.4-4.3c0.5,0,1-0.2,1.5-0.1
			c2.1,0.1,4.1-0.3,6-0.7c3-0.6,6-1,9-1.2c4.7-0.4,9.5-0.6,14.2-0.8c1.4-0.1,2.6-0.4,3.6-1.4c0.8-0.8,1.7-1.2,3.1-0.9
			c4,0.8,7.9-0.2,11.8-1.1c5.7-1.3,11.3-2.7,17-4c3.2-0.7,6.5-1,9.8-1.5c0.7-0.2,2.1,0.2,1.7-1.5c-1.4,0-2.7-0.1-4.1,0
			c-9.9,0.8-19.6,1.9-29.5,2.6c-13.2,0.9-26.3,2.5-39.5,3.9c-12.3,1.3-24.6,2.6-36.8,4.1c-7.6,0.9-15.2,1.7-22.9,2.2
			c-4.6,0.3-9.4,0.2-13.7-1.3c-3.1-1.1-6.2-2.7-9-4.5c-7-4.4-12.2-10.3-15.4-18c-2.9-6.9-6-13.7-8.9-20.5c-4-9-7.9-18-11.8-27.1
			c-4.4-9.9-8.7-19.9-13.1-29.8c-5.3-12-10.7-23.9-16.1-35.8C40.2,93.9,35,82.6,29.9,71.1c-4.5-9.9-8.9-19.6-13.4-29.4
			c-2.8-6-5.6-12.1-8.4-18.2c-1.3-3-2.4-6-3.7-9.4c-0.3,0.9-0.7,1.6-0.8,2.2c-1.3,4.9-1.7,9.9-1,15c0.7,4.6,0.5,9.1,0.3,13.7
			c-0.2,3.7-0.1,7.5-0.1,11.3c0,2.2,0.2,4.4,0,6.5c-0.2,3.5,0.8,6.6,2.4,9.7c1.6,3.2,3.1,6.5,4.6,9.9c6.9,16.7,13.7,33.6,20.6,50.3
			c4,9.5,8.3,18.9,12.3,28.4c1.6,3.5,3.1,7,4.5,10.6c5.2,12.5,10.4,25.1,15.6,37.6c0.7,1.7,1.2,3.6,2,5.4c0.4,1.1,1.1,2.1,1.7,3.2
			c1-1.3,1-2.6,1.2-3.8c0.2-1.6,0.1-3.1,0.2-4.7c0.2-1.2,0.4-2.5,0.8-3.6c0.2-0.7,0.7-1.2,1.1-1.7c0.2,0.1,0.2,0.1,0.4,0.2
			c0.1,1.3,0.2,2.7,0.2,4.1c0,1.5,0.5,2.5,2,3.1c1.6,0.7,3,1.6,4.9,2.6c-1.3,0.2-2.2,0.2-3,0.3c-1.5,0.2-2.8,0.7-3.7,2
			c-0.7,0.9-1.5,1.7-2.2,2.5c-0.8,0.8-1.1,1.7-0.5,2.8c1.3,2.5,2.6,5.1,3.8,7.6c0.3,0.7,0.9,1.4,0.4,2.4c-0.2,0.2,0.2,0.9,0.4,1.2
			c4.7,6.6,10.2,12.4,18,15.2c2,0.7,4.1,1,6.2,1.2c5,0.5,9.9,0.5,14.9,0.1c0.5,0,1-0.1,1.7-0.5c-1.6-0.9-3.1-1.7-4.7-2.6
			c-2.6-1.6-5.4-3.1-7.9-5c-3.7-2.8-6.3-6.5-8.8-10.4c-3.7-5.8-6.5-12.1-9.1-18.5c-3.1-7.9-6.6-15.7-10.3-23.4
			c-2.6-5.4-4.7-11.1-7-16.6c-4.4-10.2-8.8-20.4-13.2-30.6c-5.1-12-10.3-24.1-15.4-36.1c-4.1-9.7-8.4-19.3-12.5-29
			c-1.7-3.8-3-7.8-4.8-11.5c-3.6-7.3-5.5-15.1-8.8-22.5C10.1,41,9.5,39.6,9,38.1l0,0c0.3,0.4,0.8,0.7,1,1.2
			c2.9,6.5,5.8,13.1,8.7,19.6c2.5,5.5,5,10.9,7.4,16.5c3.5,7.9,6.8,15.9,10.2,23.8c5.9,13.6,11.8,27.2,17.6,40.8
			c0.7,1.7,1.6,3.5,2.4,5.2c4.4,8.7,7.7,17.8,11.6,26.7c6.5,15,13.1,30,19.5,45c1.3,3,2.5,6,3.7,8.9c2,4.6,4.9,8.6,8.8,11.8
			c1.4,1.1,2.7,2.3,4.1,3.5c2.1,1.7,4.5,2.8,7,3.6c4.3,1.4,8.6,2.6,13.2,2.2c1.2-0.1,2.4,0.2,3.6,0.2c1.7-0.1,3.6-0.2,5.3-0.6
			c1.7-0.2,3.3-0.8,5-1.1c1.9-0.3,3.6,0,5.4,0.9c1.2,0.7,1.9,1.6,1.8,3c0,0.5,0.1,1.1-0.1,1.6c-0.7,2.4-0.4,4.8,0,7.3
			c0.3,1.7,0.5,3.6,0.7,5.3c0.2,1.4,0.2,1.5,1.7,1.6c2.6,0.2,5.3,0.4,7.9,0.7c2.2,0.3,4.3,0.7,6.4,1.3c1.3,0.4,2.6,0.4,3.9,0.4
			c3.4-0.2,6.7-0.1,10.1-0.1c1.2,0,2.5,0.1,3.8,0.1c6.5,0.1,12.8,0.2,19.3,0.2c2.8,0,5.6-0.5,8.4-1.3c1.8-0.6,3.3-1.7,4.3-3.3
			c0.8-1.3,1.9-1.6,3.3-1.7c5.9-0.4,11.8,0.5,17.6,0.8c11.1,0.6,21.9,2.7,32.6,5.4c2.4,0.6,4.7,1.2,6.8,2.6c1.5,1,2.6,2.2,3.3,3.8
			c1.3,3.1,2,6.3,2.4,9.6C278.3,284.8,278.6,285.5,278.8,286.3L278.8,286.3z"/>
		<path fill="#000000" d="M278.8,286.3c0.3,0.4,0.5,0.9,0.9,1.2c1.9,1.2,2.2,3.1,1.7,5c-0.7,3.1-2.6,5.3-5.5,6.5
			c-4.4,1.8-8.9,3.2-13.7,4.1c-8.3,1.7-16.6,3-25.1,3.6c-13.7,1.2-27.5,1.1-41.2,1c-7.2-0.1-14.4-0.3-21.6-0.8
			c-11.1-0.7-22.3-1.6-33.3-3.7c-7.5-1.5-14.7-3.6-21.6-6.5c-2.3-1-3.8-2.8-4.7-5c-0.5-1.2-0.6-2.5,0.2-3.6c1.3-1.9,1.8-4.1,2.2-6.3
			c0.3-1.4,0.6-2.8,0.9-4.3c0.7-2.6,1.7-5,3.6-6.9c0.2-0.2,0.2-0.4,0.3-0.7l0,0c-0.4,2.5-0.7,5-1.2,7.4c-0.8,3.9-1.9,7.7-3.8,11.3
			c-0.2,0.3-0.3,0.8-0.2,1.1c0.7,1.5,1.4,3.2,3.1,4c2.1,0.9,4.1,1.8,6.2,2.6c7.5,2.7,15.3,4.5,23.3,5.4c8.4,1,16.8,1.9,25.2,2.7
			c4.5,0.4,8.9,0.5,13.5,0.6c6.1,0.2,12.3,0.3,18.5,0.3c6.9,0,13.7-0.2,20.6-0.5c12.6-0.7,25.2-2.2,37.5-5c3.9-0.9,7.8-2.1,11.2-4.4
			c1.6-1.1,2.8-2.6,3.6-4.4c0.5-1.2,0.5-2.2-0.3-3.1C278.8,287.4,278.3,286.9,278.8,286.3L278.8,286.3z"/>
		<path fill="#000000" d="M134.1,26.8c5.9,1.3,11.7,2.6,17.5,4.1c5.4,1.2,10.8,2.6,16.1,3.9c7.6,1.8,15.3,3.6,22.9,5.5
			c13.8,3.3,27.6,6.5,41.5,9.9c4.6,1.2,9.2,2.5,13.8,3.6c1.5,0.4,3.1,0.5,4.6,0.9c3.6,0.8,7,1.7,10.6,2.6c5.5,1.3,11.1,2.6,16.6,3.9
			c3.3,0.7,5.5,1.7,9.5,5.7c-0.7-0.2-0.9-0.3-1.2-0.5c-3.5-2.2-7.4-3.2-11.3-4.2c-8-2-16.1-3.9-24.1-5.9
			c-17.3-4.3-34.5-8.7-51.7-12.9c-18-4.4-36.2-8.5-54.2-12.8c-1.9-0.4-3.9-0.7-5.8-1.2C137.2,29.1,135.5,28.3,134.1,26.8z"/>
		<path fill="#000000" d="M22.4,14.2c0.2-1.2,0.5-2,0.7-3.1c1.2,0.2,2.3,0.2,3.4,0.5c5.4,1.2,10.7,2.5,16.1,3.6
			c3.4,0.7,6.9,1.2,10.3,2c7.9,1.6,15.8,3.3,23.7,4.9c5.7,1.2,11.4,2.2,17.1,3.4c14.4,3.1,28.7,6.5,43.1,9.7c0.9,0.2,1.7,0.5,2.6,1
			c-2.5-0.5-4.9-0.9-7.4-1.4c-12.3-2.6-24.7-5.2-37.1-7.8c-14.7-3.1-29.5-6.2-44.2-9.3c-5.5-1.2-11.1-2.3-16.7-3.5
			C30.4,13.6,26.7,13.8,22.4,14.2z"/>
		<path fill="#000000" d="M288.2,67.6c2.6,2.1,4.9,4.6,6.6,7.5c6.3,10.5,12.7,21.1,19,31.6c2.3,3.9,4.6,7.9,7,11.8
			c0.2,0.4,0.4,0.8,0.3,1.4c-0.4-0.5-0.8-1-1.2-1.6c-2.6-4-5.1-8-7.6-12.1c-4.5-7.1-8.9-14.2-13.3-21.4c-1.8-2.9-3.4-6-5.1-8.9
			C292,73,290.6,70,288.2,67.6z"/>
		<path fill="#000000" d="M149.7,251.5c2,0.4,3.7,0.7,4.7,2.6c1.1,1.9,0.5,3.6-1.6,5c-1.1,0.7-3.1,0-4.1-1.4
			c-0.9-1.2-1.1-2.6-0.4-3.9C148.8,253,149.2,252.3,149.7,251.5z"/>
		<path fill="#000000" d="M42,133.6c-1.1,0-1.7,0-2.6,0c0.2-0.5,0.5-1,0.7-1.2c-0.8-2.6-1.9-5-2.3-7.5c-0.3-1.8,0.3-3.9,0.5-6
			c2.9,2.2,2.9,5.4,4.4,7.9c-0.3,0.5-0.6,1-1,1.3c-1.2,1.1-1.2,2.2-0.5,3.6C41.4,132.1,41.7,132.7,42,133.6z"/>
		<path fill="#000000" d="M157.6,248.9c4.1,3.8,4.2,8.7,3.7,14c-0.4-0.6-0.7-1.2-1.2-1.7c-0.7,0.4-1.2,0.7-2.2,1.2
			C160,257.6,158,253.3,157.6,248.9z"/>
		<path fill="#000000" d="M73.1,200.9c1.6,0.2,2.5,1.2,3.1,2.5c0.8,1.8,1.6,3.7,2.4,5.8c-0.3,0.4-0.7,0.8-1.2,1.2
			c-0.4,0.3-0.8,0.7-1.3,1c-1-1.2-1.1-2.6-1.2-3.9c-0.1-1.2-0.5-2.2-1.7-2.6c-0.2-0.1-0.5-0.2-0.7-0.4c-1.1-0.8-1.2-1.2-0.4-2.5
			C72.4,201.7,72.8,201.4,73.1,200.9z"/>
		<path fill="#000000" d="M142.7,268.2c-0.5,1.3-1.2,2.1-2.4,2.2c-1.9,0.2-3.8,0.5-5.6,0.7c-1,0.1-2.1,0-3.2,0
			c0.2-1.5,0.9-2.4,2.1-2.8c1-0.4,2-0.6,3.1-0.7C138.6,267.5,140.6,267.8,142.7,268.2z"/>
		<path fill="#000000" d="M7.8,55.4c-0.4-0.2-0.5-0.2-0.5-0.2c-1.5-1.4-2.3-2.9-1.4-5c0.5-1.2,0.7-2.6,1-4.1c2.2,1.1,2.7,3,3.1,5
			C10.4,53,8.5,53.8,7.8,55.4z"/>
		<path fill="#000000" d="M9,57.2c0.7,0.4,1.2,0.7,1.7,1c-0.5,4.2-1,8.4-4.1,11.7C6.9,65.7,7.5,61.5,9,57.2z"/>
		<path fill="#000000" d="M184.9,241.7c-0.1,0.4,0,0.7-0.1,0.7c-0.3,0.5-0.7,1-1.1,1.7c-0.8-0.6-1.5-1.2-2.3-1.7
			c-1.1,0.6-2.2,1.2-3.5,1.9c-0.1-0.8-0.2-1.4-0.2-2.2C180.1,242,182.5,241.9,184.9,241.7z"/>
		<path fill="#000000" d="M178.3,44.6c-3-0.7-6-1.3-8.9-1.9C171.8,42.5,176.4,43.5,178.3,44.6z"/>
		<path fill="#000000" d="M151.8,38.4c-1.8-0.1-3.6-0.1-5.2-1.1C148.4,37.4,150.2,37.5,151.8,38.4z"/>
		<path fill="#000000" d="M160.4,40.8c-0.5,0.2-1,0.6-1.4,0.5c-0.4-0.1-1-0.5-1.1-0.8c-0.1-0.7,0.6-1,1.2-0.9
			c0.5,0.1,0.9,0.5,1.3,0.7C160.4,40.4,160.4,40.6,160.4,40.8z"/>
		<path fill="#000000" d="M124,269.1c0.7-1.2,2.2-1.2,3.1-1.9c0.1,0.1,0.1,0.2,0.2,0.3C126.3,268.1,125.1,268.6,124,269.1
			C123.9,269.1,124,269.1,124,269.1z"/>
		<path fill="#000000" d="M9.4,38.4c-0.2-0.5-0.4-1.1-0.6-1.6c0.1,0,0.2-0.1,0.3-0.1C9.3,37.3,9.3,37.9,9.4,38.4L9.4,38.4z"/>
		<path fill="#000000" d="M122.1,270c0.7-0.3,1.2-0.6,1.9-0.9V269C123.6,269.9,123.1,270.4,122.1,270L122.1,270z"/>
		<path fill="#000000" d="M127.9,82.4c-1.2,0.7-2,1.2-3,1.9c0.2,0.6,0.4,1.2,0.6,1.7c1.1,3,0.4,2.6,4.1,3.4c0.4-0.8,0.9-1.7,1.5-2.7
			c2.4,2.3,5,4.4,4.9,8.4c-4,1.1-7.5-0.1-10.6-2.6c-3.6-2.8-5.3-6.5-5.1-11.3C122.9,80.7,125.2,81.7,127.9,82.4z"/>
		<path fill="#000000" d="M86.6,106.5c-1.6,0-3.2,0-5.1,0c0.1,3.5,2.7,5.3,4.2,7.8c1.2-0.3,2.5-0.7,3.7-1c0.4,1.2,0.7,2.4,1.2,3.6
			c2.2-0.8,1.1-2.9,2.1-4.2c1.2,1.2,1.9,2.5,2.2,4.1c0.2,1.2-0.3,2-1.5,2.6c-1.4,0.7-2.8,0.4-4.2-0.1c-1.4-0.5-2.6-1.5-4.2-1.6
			c-0.5,0-1.1-0.7-1.6-1.2c-2.8-2.6-4.8-5.8-5.4-9.7c-0.3-2.2,0.3-3.1,2.5-3.1c2.4-0.1,4.4,1,6.3,2.2
			C86.7,106.1,86.6,106.3,86.6,106.5z"/>
		<path fill="#000000" d="M86,51.1c-2.2,0.9-2.1,4.5-0.7,5.7c0.7,0.7,1.6,0.7,2.4,0.3c0.7-0.2,1.5-0.7,2.2-1c0.7-0.3,1.3-0.7,1.9-1
			c2.6,2.2,3.1,3.8,2.1,6.6c-9.2,0.6-15.1-5-14.7-13C81.2,48.5,83.5,49.2,86,51.1z"/>
		<path fill="#000000" d="M159.5,112.5c2,0.4,4,0.9,6.2,1.4c-0.8,1.2-1.4,2.3-2.2,3.2c-0.8,1-0.7,1.9,0,2.8c0.4,0.5,0.8,1,1.3,1.5
			c0.7,0.7,1.6,1,2.6,0.5c1-0.5,1.8-1.1,1.5-2.5c-0.1-0.2,0-0.5,0.1-1.2c0.6,0.7,1.1,1.2,1.4,1.6c0.4,0.6,0.9,1.2,1.3,1.7
			c1.6,2.2,1.6,2.2,0.6,5c-0.4,0-1,0.2-1.5,0.1c-4.8-0.9-8.4-3.4-10.4-7.9c-0.7-1.7-1.8-3.4-1.2-5.4
			C159.1,113.2,159.3,112.9,159.5,112.5z"/>
		<path fill="#000000" d="M142.5,112c-1.8,1.2-3.4,2.2-5,3.2c2.4,3,5.3,5.2,7,8.6c-5.6,0.3-11.7-7.9-10.3-13.8
			C136.9,110.1,139.6,110.9,142.5,112z"/>
		<path fill="#000000" d="M190.2,98.5c-0.6,0.4-1.1,0.7-1.7,1.2c-0.2-0.2-0.6-0.6-1-0.9c0.7-0.4,1.2-0.7,1.7-1.1
			c-0.6-2.2-1.1-4.3-1.7-6.8c1.3-0.1,2.3-0.1,3.6-0.2c-0.9,2.6-1.5,5.2,1.3,7.1c1.4-0.7,2.7-1.4,4.2-2.2c0.3,1.5,0.6,2.8,0.8,4.1
			c1.2,0.7,2.6,1.3,2.8,3.1C197.5,103.4,196.3,102.9,190.2,98.5z"/>
		<path fill="#000000" d="M71.4,74.9c-1.5,0.2-3,0.3-4.6,0.5c0.5,2.5,1.2,4.9,2.3,7c0.2,0.5,0.9,1,1.5,1.2c1.2,0.4,2.6,0.6,3.9,0.8
			c0.7,0.2,1.4,0.2,2.2,0.4c-0.1,0.9-0.1,1.7-0.2,2.6c-2.2,0.1-3.8-0.8-5.3-1.8c-3.3-2.2-6-5-7.6-8.7c-0.2-0.4-0.3-0.8-0.4-1.3
			c-0.2-1.2,0.4-1.9,1.6-2.1C66.7,73.3,69.1,73.6,71.4,74.9z"/>
		<path fill="#000000" d="M240.9,119.9c1.2,0.7,2.5,1.3,3.7,2c-0.2,1.7-0.3,3.3-0.5,5.1c1.4,0.4,2.7,1.2,4.1,1.2
			c2.6,0.2,3.3,1.7,3.7,3.8C246.1,132.5,240.1,127.7,240.9,119.9z"/>
		<path fill="#000000" d="M224.1,126.8c0.6-0.4,0.2-0.9,0.1-1.4c-0.4-1.2-0.8-2.5-1.1-3.8c-0.2-0.7,0-1.4,0-2.2
			c0.7-0.1,1.2-0.1,1.8-0.1c0.5,0,1.1,0,1.8,0c-0.2,0.7-0.4,1.1-0.7,1.5c-1.7,3.1-0.8,4.8,2.6,5.5c1.1,0.2,2.2,0.4,3.3,0.7
			c0.9,0.3,1.9,0.7,2.2,1.9c-0.5,0.7-0.9,1.5-1.5,2.3c-2.8-1.4-5.5-2.6-8.1-4C224.4,127.3,224.4,127,224.1,126.8L224.1,126.8z"/>
		<path fill="#000000" d="M175.3,66.5c1.5,0.2,2.7,0.6,4.1,0.8c0,0.5,0,1,0,1.5c0,0.7-0.2,1.5-0.1,2.2c0.2,2.4,1.2,3.1,3.6,2.6
			c0.8-0.2,1.7-0.3,2.6-0.6c0.7,1.7,1.3,3.3,2,5C182.1,78.2,175.6,72.1,175.3,66.5z"/>
		<path fill="#000000" d="M172.3,102.2c-1.9-1.7-3.4-3.6-4.6-5.7c-0.2-0.4-0.2-1.2,0-1.7c0.7-1.7,1.7-3.2,3.1-4.6
			c0.5,1.9,0.7,3.8,1.4,5.5c0.7,1.7,1.8,3.3,2.9,5C174.2,101.3,173.3,101.7,172.3,102.2z"/>
		<path fill="#000000" d="M208.2,132.1c-2.6-2.6-4.7-5.1-6.7-7.9c0.7-1.2,1.5-2.3,2.4-3.6c1.7,2.2,3.3,4.1,4.9,6.1
			c0.2,0.2,0.3,0.7,0.3,0.9C209,128.9,208.6,130.3,208.2,132.1z"/>
		<path fill="#000000" d="M136.9,66.7c1.7,0.5,2.6-0.6,3.6-1.6c0,1.4,0,2.6,0,4c-3.9,0.4-9.2-4.7-9.5-10.3c0.3-0.1,0.7-0.2,1.1-0.2
			c0.4-0.1,0.7-0.1,1.3-0.1C134.5,61,135.7,63.8,136.9,66.7z"/>
		<path fill="#000000" d="M93.6,83.6c1.5-0.2,2.6,0.3,3.5,1.2c0.7,0.6,1.4,1.2,2,1.9c1.9,2.5,4.4,4.1,7.2,5.3
			c0.3,0.1,0.6,0.3,0.8,0.5C101.4,91.3,96.2,89.7,93.6,83.6z"/>
		<path fill="#000000" d="M62.4,57.7c-7.8-1.8-10.7-4.1-12.3-9.9C54.4,51.3,58.5,54.5,62.4,57.7z"/>
		<path fill="#000000" d="M272,92.2c-4,0.1-6.9-1.7-7.8-4.9c-0.4-1.6-0.2-2.3,1.1-4c0.3,0.8,0.7,1.6,1,2.3c0.5,1.7,1.6,3,3.2,3.7
			c0.7,0.3,1.4,1,2,1.6C271.7,91.2,271.8,91.7,272,92.2z"/>
		<path fill="#000000" d="M49.2,43.1c2.3,0.2,4.3,0.4,6.3,0.7c1.6,0.2,3,1,3.5,3c-1.8,0.1-3.5,0.2-5.3,0.3c-0.3-1.2-0.6-2.2-0.9-3.4
			c-1.3,0.6-2.5,1.1-4,1.7C48.9,44.5,49,43.8,49.2,43.1z"/>
		<path fill="#000000" d="M308.8,136.9c-3.6-1.2-6-5.1-5.7-9.4C305.4,130.6,307.9,133.1,308.8,136.9z"/>
		<path fill="#000000" d="M108,86.6c-2.3-0.3-4.4-0.7-6.5-1c0.2-1.7,0.6-2.2,2.6-2.6c1.2-0.2,1.7,0,2.5,1.4
			C107.1,85,107.5,85.8,108,86.6z"/>
		<path fill="#000000" d="M148.1,121.8c-1.2-0.9-2.3-1.7-3.4-2.4c-0.2-0.2-0.4-0.3-0.6-0.6c-0.7-0.9-0.7-2.2-0.1-2.6
			c0.7-0.6,2-0.2,2.6,0.9C147.6,118.4,148,119.9,148.1,121.8z"/>
		<path fill="#000000" d="M100,80.3c-2,0-3.6-1-5-2c-0.9,0.6-1.7,1.1-2.6,1.6c0.4-2.6,1.1-3.1,3.4-2.6c0.7,0.2,1.6,0.3,2.3,0.5
			C99.8,78.3,99.8,78.3,100,80.3z"/>
		<path fill="#000000" d="M64.1,51.1c-1.3,0.7-2.6,1.2-3.9,2c-0.2-1.5-0.4-2.6-0.7-4c0.7-0.3,1.4-0.7,2.2-1
			C62.4,49.1,63.2,50,64.1,51.1z"/>
		<path fill="#000000" d="M122.5,123.3c-1.7-0.5-3-1-4.8-1.6c2.2-1.2,3.9-2.2,6-3.4C123.3,120.2,122.9,121.6,122.5,123.3z"/>
		<path fill="#000000" d="M59.7,62.2C56.6,61,48.3,53.7,47,51.3C47,51.3,59.3,61.9,59.7,62.2z"/>
		<path fill="#000000" d="M191.3,128.4c-0.3-2.4,0.1-3.4,2.1-4.6c0.3,1,0.6,2,0.9,3.1C193.3,127.4,192.3,127.9,191.3,128.4z"/>
		<path fill="#000000" d="M281.4,91.6c3.2-0.2,4.5,0.7,4.6,3.4C284,94.5,282.6,93.5,281.4,91.6z"/>
		<path fill="#000000" d="M134.9,121.7c-2.1-1.3-3.8-2.9-4.8-5.3C131.8,116.9,133.3,118.5,134.9,121.7z"/>
		<path fill="#000000" d="M91.1,125.9c-2.6-0.2-4.6-1.5-6.4-3.3C86.9,122.8,89.8,124.3,91.1,125.9z"/>
		<path fill="#000000" d="M184.3,120.7c-1.2-1.4-1.6-3.1-1.8-4.8c0.9-0.1,1.5,0.2,1.8,0.9C184.9,118.1,184.9,119.3,184.3,120.7z"/>
		<path fill="#000000" d="M277.8,85.9c1.2,0.1,1.7,0.1,2.4,0.2c0.4,1.6,0.3,2.1-0.2,4.6C279.2,88.8,278.6,87.5,277.8,85.9z"/>
		<path fill="#000000" d="M108.2,118.1c2.2,0.2,2.8,0.9,2.9,3C109.1,121.4,108.1,120.4,108.2,118.1z"/>
		<path fill="#000000" d="M258.5,84.1c-1-0.6-1.2-1.5-0.9-2.6c0.1-0.3,0.5-0.7,0.9-0.9c0.2-0.1,0.7,0.2,0.9,0.5
			C260.2,82.3,259.9,83.4,258.5,84.1z"/>
		<path fill="#000000" d="M209,120.1c1.2,1.3,2.4,2.6,3.7,4.1c-2.2,0.3-2.2,0.3-2.9-1.3c-0.4-0.9-0.8-1.7-1.2-2.6
			C208.7,120.2,208.9,120.2,209,120.1z"/>
		<path fill="#000000" d="M137.4,124.3c1.9,0.6,3.3,1.7,4.4,3.7C139.4,127.5,138.3,126,137.4,124.3z"/>
		<path fill="#000000" d="M93.5,89c-1.2-1.7-2.6-3.3-3.8-4.9C91.7,85,93,86.7,93.5,89z"/>
		<path fill="#000000" d="M99.4,94.1c1.8-0.5,2.6,0.1,2.9,2C100.5,96.4,100.2,96.2,99.4,94.1z"/>
		<path fill="#000000" d="M184,125.4c-0.2,0.2-0.7,0.5-1,0.5c-0.9,0-1.6-0.8-1.3-1.7c0.1-0.3,0.6-0.7,0.8-0.7
			C183.3,123.3,184,124.3,184,125.4z"/>
		<path fill="#000000" d="M136.4,70.7c-0.2,0.2-0.5,0.6-0.8,0.7c-0.7,0.2-1.6-0.6-1.5-1.2c0.1-0.3,0.5-0.8,0.8-0.9
			C135.5,69.1,136.4,69.8,136.4,70.7z"/>
		<path fill="#000000" d="M123.6,49.8c-0.1,1.1-0.5,1.3-1.1,1.2c-0.3-0.2-0.7-0.7-0.8-1.1c-0.1-0.8,0.6-1,1.2-0.8
			C123.3,49.1,123.5,49.7,123.6,49.8z"/>
		<path fill="#000000" d="M163.3,128.3c-0.5-0.6-0.9-0.8-1-1.2c-0.1-0.2,0.5-0.6,0.7-0.8c0.3,0.3,0.7,0.7,0.9,1
			C164,127.3,163.7,127.8,163.3,128.3z"/>
		<path fill="#000000" d="M224.2,126.8c-0.6-0.2-1.2-0.4-1.7-0.7c0.1-0.2,0.2-0.2,0.2-0.4C223.1,126.1,223.6,126.4,224.2,126.8
			C224.1,126.8,224.2,126.8,224.2,126.8z"/>
		<path fill="#000000" d="M258.8,123.1c1.2,0.4,2.2,0.7,3.3,1.1c-0.1,1.3,0,2.6-0.2,3.6c-0.2,1.2,0.2,2,1.2,2.6
			c0.7,0.5,1.3,1.1,2.2,1.7c-1,0.6-1.8,1.1-2.6,1.7C259.3,131,258.3,127.4,258.8,123.1z"/>
		<path fill="#000000" d="M233.5,109.6c-2.9-3-6-5.5-8.2-9.3c3.7,0.8,6.5,2.6,8.5,5.3C234.7,106.8,234,108.1,233.5,109.6z"/>
		<path fill="#000000" d="M215,79.8c2.5-0.4,4.6-0.3,6.5,0.3c2,0.7,2.8,1.9,2.7,4.1C220.8,83.6,217.4,83.4,215,79.8z"/>
		<path fill="#000000" d="M215,102.8c1.3-0.9,2.5-1.7,3.7-2.6c1.5,1.6,2.9,3.1,4.5,4.8C219.9,105.8,217.4,104.8,215,102.8z"/>
		<path fill="#000000" d="M214.3,73.9c3.7,0.2,3.4,0.6,3.4,3.4c0,0.6-0.1,1.2-0.1,1.8c-1,0-1.9,0-2.9,0
			C214,77.4,214.3,75.7,214.3,73.9z"/>
		<path fill="#000000" d="M208.9,92.5c2.6,0.9,3.7,3.3,3.6,8.1C210.4,99.6,208.9,96.2,208.9,92.5z"/>
		<path fill="#000000" d="M254,105.1c0.7,1.7,1.2,3.3,1.8,4.9c-5,1.3-12.4-5.4-10.7-11.5c1.7,0.2,2.6,1.4,3.1,2.9
			c0.5,1.2,0.9,2.6,1.4,4.1C251.1,105.2,252.4,105.2,254,105.1z"/>
		<path fill="#000000" d="M291.2,108.3c-0.2,2.1,0.8,3,2.2,3.7c1.4,0.8,2.7,1.7,4.1,2.7c-2.6,0-4.9-0.9-6.5-3.1
			C290.2,110.6,290.3,109.7,291.2,108.3z"/>
		<path fill="#000000" d="M118.6,60.9c0.7,2.1,1.3,4.1,2.2,6.3c-3-0.8-5.7-1.3-8.1-2.7c-1.1-0.7-2-1.5-2.7-2.5c-1.5-1.9-2.8-4-4.1-6
			c-0.4-0.6-0.5-1.2-0.1-1.8c0.7-0.9,1.6-1,2.2,0c0.4,0.6,0.7,1.3,0.9,2c0.5,1.1,0.9,2.2,1.5,3.2c1.4,2.6,3,3.3,5.9,2.4
			C117,61.4,117.7,61.2,118.6,60.9z"/>
		<path fill="#000000" d="M145.2,83.6c2.2,0.9,4,1.7,5.9,2.4c-0.5,1-1,1.8-1.3,2.6c-0.7,1.6-0.2,2.6,1.3,3.4c1,0.4,2,0.7,3,1.2
			c1.2,0.5,1.3,0.9,1.3,2.7c-1.5,0.1-3,0.3-4.5,0.2c-2.2-0.1-4.2-1-4.3-4.1c-0.1-2.1-0.7-4.1-1-6.2
			C145.5,85.2,145.4,84.5,145.2,83.6z"/>
		<path fill="#000000" d="M197.3,69.4c0.8,0.2,1.7,0.6,2.4,0.7c0.3,2,0.4,3.9,0.9,5.7c0.5,1.7,1.4,3.3,2.2,5.2
			C197.9,79,195.5,73.8,197.3,69.4z"/>
		<path fill="#000000" d="M274.9,125.1c0.8,0,1.4,0.1,2.3,0.1c-0.3,0.9-0.7,1.7-0.9,2.5c-0.5,1.5-0.2,2.2,1.2,2.8
			c0.7,0.3,1.7,0.6,2.5,0.7c1.7,0.1,2.6,0.8,2.8,2.6c0,0.4,0.2,0.8,0.2,1.7c-1-0.3-1.8-0.6-2.6-0.9c-2.2-0.9-4-2.3-5.5-4
			c-0.3-0.3-0.7-0.9-0.6-1.3C274.4,127.8,274.7,126.6,274.9,125.1z"/>
	</g>
</g>
</svg>
